# xmcd
#
# Track frame offsets:
#	150
#	16542
#	34851
#	54717
#	70806
#	85529
#	94469
#	108950
#	121217
#	134278
#	147755
#	154424
#	161739
#	177120
#	187652
#	198283
#	208267
#	226379
#	232594
#	249962
#	266118
#	272420
#	285208
#
# Disc length: 4074 seconds
#
# Revision: 1
# Processed by: cddbd v1.5.2PL0 Copyright (c) Steve Scherf et al.
# Submitted via: EZCDAudioConverter 8.0.7.1
#
DISCID=2d0fe817
DTITLE=KennethGrahame - Wind In Willows- BBC FullCast
DYEAR=1994
DGENRE=Spoken Word
TTITLE0=Wind In The Willows 2a
TTITLE1=Wind In The Willows 2b
TTITLE2=Wind In The Willows 2c
TTITLE3=Wind In The Willows 2d
TTITLE4=Wind In The Willows 2e
TTITLE5=Wind In The Willows 2f
TTITLE6=Wind In The Willows 2g
TTITLE7=Wind In The Willows 2h
TTITLE8=Wind In The Willows 2i
TTITLE9=Wind In The Willows 2j
TTITLE10=Wind In The Willows 2k
TTITLE11=Wind In The Willows 2l
TTITLE12=Wind In The Willows 2m
TTITLE13=Wind In The Willows 2n
TTITLE14=Wind In The Willows 2o
TTITLE15=Wind In The Willows 2p
TTITLE16=Wind In The Willows 2q
TTITLE17=Wind In The Willows 2r
TTITLE18=Wind In The Willows 2s
TTITLE19=Wind In The Willows 2t
TTITLE20=Wind In The Willows 2u
TTITLE21=Wind In The Willows 2v
TTITLE22=Wind In The Willows 2w
EXTD=
EXTT0=
EXTT1=
EXTT2=
EXTT3=
EXTT4=
EXTT5=
EXTT6=
EXTT7=
EXTT8=
EXTT9=
EXTT10=
EXTT11=
EXTT12=
EXTT13=
EXTT14=
EXTT15=
EXTT16=
EXTT17=
EXTT18=
EXTT19=
EXTT20=
EXTT21=
EXTT22=
PLAYORDER=
